# xmcd
#
# Track frame offsets: 
#        150
#        21613
#        36116
#        48519
#        64606
#        76851
#        87779
#        101618
#        112447
#        128288
#        136047
#        156148
#        182374
#        200939
#        222962
#        234985
#        255190
#        272032
#        290242
#        309390
#        326955
#
# Disc length: 4633 seconds
#
# Revision: 2
# Processed by: cddbd v1.5.2PL0 Copyright (c) Steve Scherf et al.
# Submitted via: ExactAudioCopy v1.0b1
#
DISCID=2c121715
DTITLE=Whiskeytown - Strangers Almanac Deluxe Edition Disc 2
DYEAR=2008
DGENRE=Country
TTITLE0=Indian Gown
TTITLE1=16 Days [Acoustic]
TTITLE2=Somebody Remembers The Rose [Acoustic]
TTITLE3=Avenues [Acoustic]
TTITLE4=Excuse Me While I Break My Own Heart Tonight [Acoustic]
TTITLE5=Houses On The Hill [Early Version]
TTITLE6=My Heart Is Broken
TTITLE7=I Still Miss Someone [Acoustic]
TTITLE8=Kiss And Make Up
TTITLE9=Barn's On Fire
TTITLE10=Dancing With The Women At The Bar [Early Version]
TTITLE11=Dreams
TTITLE12=Breathe
TTITLE13=Wither I'm A Flower
TTITLE14=Luxury Liner
TTITLE15=Theme For A Trucker
TTITLE16=Streets Of Sirens
TTITLE17=Turn Around [Alternate Version]
TTITLE18=10 Seconds
TTITLE19=Ticket Time [Early Version]
TTITLE20=The Rain Won't Help You When It's Over [Early Version]
EXTD=YEAR: 2008
EXTT0=
EXTT1=
EXTT2=
EXTT3=
EXTT4=
EXTT5=
EXTT6=
EXTT7=
EXTT8=
EXTT9=
EXTT10=
EXTT11=
EXTT12=
EXTT13=
EXTT14=
EXTT15=
EXTT16=
EXTT17=
EXTT18=
EXTT19=
EXTT20=
PLAYORDER=
